***************************************************************************

                        XxX Releasers Group

***************************************************************************

screens;
  
http://adulthub.eu/?v=iakclubsev.jpeg
 
http://adulthub.eu/?v=iakcluxrx.jpeg
 
http://adulthub.eu/?v=iakclufef.jpeg

Format                                   : Windows Media
File size                                : 811 MiB
Duration                                 : 21mn 50s
Overall bit rate                         : 5 191 Kbps
Maximum Overall bit rate                 : 5 149 Kbps
Encoded date                             : UTC 2012-11-29 15:35:54.000

Video
ID                                       : 1
Format                                   : VC-1
Format profile                           : Main
Codec ID                                 : WMV3
Codec ID/Info                            : Windows Media Video 9
Codec ID/Hint                            : WMV3
Description of the codec                 : Windows Media Video 337047352 - 2-pass VBR
Duration                                 : 21mn 50s
Bit rate                                 : 5 000 Kbps
Width                                    : 1 280 pixels
Height                                   : 720 pixels
Display aspect ratio                     : 16:9
Frame rate                               : 25.000 fps
Bit depth                                : 8 bits
Scan type                                : Progressive
Compression mode                         : Lossy
Bits/(Pixel*Frame)                       : 0.217
Stream size                              : 781 MiB (96%)

Audio
ID                                       : 2
Format                                   : WMA
Format version                           : Version 2
Codec ID                                 : 161
Codec ID/Info                            : Windows Media Audio
Description of the codec                 : Windows Media Audio 9 - 337047352 kbps, 337047352 kHz, stereo CBR
Duration                                 : 21mn 50s
Bit rate                                 : 128 Kbps
Channel(s)                               : 2 channels
Sampling rate                            : 44.1 KHz
Bit depth                                : 16 bits
Stream size                              : 20.0 MiB (2%)
